<svg width="39" height="39" viewBox="0 0 39 39" fill="none" xmlns="http://www.w3.org/2000/svg">
<path d="M8.125 32.5C8.125 33.362 8.46741 34.1886 9.0769 34.7981C9.6864 35.4076 10.513 35.75 11.375 35.75H27.625C28.487 35.75 29.3136 35.4076 29.9231 34.7981C30.5326 34.1886 30.875 33.362 30.875 32.5V13H34.125V9.75H27.625V6.5C27.625 5.63805 27.2826 4.8114 26.6731 4.2019C26.0636 3.59241 25.237 3.25 24.375 3.25H14.625C13.763 3.25 12.9364 3.59241 12.3269 4.2019C11.7174 4.8114 11.375 5.63805 11.375 6.5V9.75H4.875V13H8.125V32.5ZM14.625 6.5H24.375V9.75H14.625V6.5ZM13 13H27.625V32.5H11.375V13H13Z" fill="black" fill-opacity="0.48"/>
<path d="M14.625 16.25H17.875V29.25H14.625V16.25ZM21.125 16.25H24.375V29.25H21.125V16.25Z" fill="black" fill-opacity="0.48"/>
</svg>
