<svg width="142" height="142" viewBox="0 0 142 142" fill="none" xmlns="http://www.w3.org/2000/svg">
<path d="M127.759 42.6177C127.085 40.1174 125.768 37.8371 123.939 36.0039C122.11 34.1707 119.832 32.8485 117.333 32.1689C108.068 29.6247 71 29.5833 71 29.5833C71 29.5833 33.938 29.5419 24.6666 31.9737C22.1693 32.6845 19.8967 34.0254 18.0669 35.8676C16.2372 37.7098 14.9117 39.9915 14.2177 42.4935C11.7742 51.759 11.7505 70.9763 11.7505 70.9763C11.7505 70.9763 11.7268 90.2883 14.1527 99.4592C15.5135 104.53 19.5072 108.535 24.5837 109.902C33.9439 112.446 70.9112 112.488 70.9112 112.488C70.9112 112.488 107.979 112.529 117.245 110.103C119.744 109.425 122.024 108.106 123.857 106.276C125.691 104.447 127.015 102.17 127.699 99.6722C130.149 90.4126 130.167 71.2012 130.167 71.2012C130.167 71.2012 130.285 51.8832 127.759 42.6177ZM59.143 88.7796L59.1726 53.2796L89.9807 71.0592L59.143 88.7796Z" fill="#6587DF"/>
</svg>
