<svg width="47" height="47" viewBox="0 0 47 47" fill="none" xmlns="http://www.w3.org/2000/svg">
<path fill-rule="evenodd" clip-rule="evenodd" d="M36.0392 11.0313C34.4106 9.39194 32.4728 8.09206 30.3382 7.20695C28.2036 6.32185 25.9146 5.86912 23.6038 5.875C13.914 5.875 6.02579 13.7612 6.02188 23.455C6.02188 26.553 6.83067 29.5767 8.36796 32.244L5.875 41.3522L15.1947 38.9062C17.7726 40.3095 20.6608 41.0454 23.596 41.0467H23.6038C33.2917 41.0467 41.1798 33.1605 41.1838 23.4667C41.1904 21.1568 40.7392 18.8685 39.8562 16.7341C38.9731 14.5996 37.6758 12.6613 36.0392 11.0313ZM23.6038 38.0798H23.5979C20.9806 38.0801 18.4115 37.3759 16.1602 36.0412L15.6275 35.7239L10.0972 37.175L11.5718 31.7837L11.2252 31.2315C9.76188 28.9019 8.98725 26.206 8.99071 23.455C8.99463 15.3984 15.5492 8.84383 23.6097 8.84383C25.5293 8.83956 27.4308 9.21607 29.2039 9.95156C30.9771 10.6871 32.5868 11.7669 33.9399 13.1287C35.3002 14.4839 36.3784 16.0953 37.1122 17.8698C37.8459 19.6442 38.2207 21.5465 38.2149 23.4667C38.211 31.5233 31.6565 38.0798 23.6038 38.0798ZM31.6193 27.1347C31.1786 26.9134 29.0205 25.852 28.6171 25.7051C28.2157 25.5582 27.9239 25.4857 27.6301 25.9244C27.3364 26.3631 26.4943 27.352 26.2377 27.6458C25.9812 27.9395 25.7247 27.9748 25.286 27.7555C24.8473 27.5361 23.4315 27.072 21.7532 25.5758C20.447 24.4106 19.5657 22.9732 19.3092 22.5326C19.0526 22.092 19.2817 21.855 19.503 21.6357C19.7008 21.4398 19.9417 21.1226 20.161 20.866C20.3804 20.6095 20.4528 20.4274 20.5997 20.1336C20.7466 19.8399 20.6741 19.5833 20.5625 19.364C20.4528 19.1427 19.5735 16.9807 19.2073 16.1014C18.8529 15.2495 18.4906 15.3631 18.2203 15.3514C17.9404 15.3399 17.6603 15.3347 17.3802 15.3357C17.1575 15.3414 16.9383 15.393 16.7364 15.4874C16.5346 15.5817 16.3544 15.7168 16.2072 15.884C15.8038 16.3247 14.6699 17.3861 14.6699 19.5481C14.6699 21.7101 16.2444 23.7996 16.4637 24.0934C16.683 24.3871 19.5618 28.8227 23.968 30.7262C25.0177 31.1786 25.8363 31.4489 26.4727 31.6525C27.5244 31.9874 28.482 31.9385 29.2399 31.8268C30.0839 31.7015 31.8386 30.7654 32.2048 29.7392C32.571 28.7131 32.571 27.8338 32.4613 27.6497C32.3517 27.4656 32.056 27.354 31.6193 27.1347Z" fill="white"/>
</svg>
