<svg width="122" height="122" viewBox="0 0 122 122" fill="none" xmlns="http://www.w3.org/2000/svg">
<path d="M106.516 54.2239C106.15 52.5871 105.133 51.0672 103.964 50.4368C103.608 50.2386 101.311 49.9895 98.8607 49.8827C94.7482 49.6997 94.2958 49.6184 93.0047 48.861C90.9459 47.6562 90.3817 46.3549 90.3715 42.8271C90.3613 36.0815 87.5553 29.8188 82.0043 24.1712C78.0597 20.1402 73.6422 17.4155 68.6148 15.8905C67.4152 15.5245 64.7108 15.3974 55.6777 15.2907C41.5105 15.1229 38.369 15.4127 33.5347 17.3342C24.6491 20.8772 18.2441 28.3447 15.921 37.9217C15.4787 39.7161 15.3974 42.5983 15.2907 59.1547C15.1636 79.8947 15.311 82.9447 16.6022 87.0521C17.6798 90.4477 18.7626 92.5268 20.9789 95.4752C25.2235 101.107 31.5675 105.169 37.9267 106.318C40.9513 106.862 78.2427 107.004 82.0653 106.481C88.7042 105.576 93.9146 102.912 98.8047 97.9203C102.333 94.3111 104.544 90.402 105.993 85.217C106.587 83.0617 106.638 82.0145 106.75 69.3722C106.836 59.8257 106.76 55.3524 106.516 54.2239ZM40.7022 41.2157C42.2933 39.6093 42.7305 39.5432 52.7192 39.5432C61.6862 39.5432 61.9811 39.5636 63.2977 40.2244C65.2039 41.1852 66.0325 42.5424 66.0325 44.6978C66.0325 46.6497 65.2547 48.0172 63.5264 49.1152C62.5911 49.6997 62.037 49.7404 53.253 49.7912C47.8291 49.8268 43.5133 49.7252 42.8677 49.5472C39.467 48.6119 38.2012 43.737 40.7022 41.2157ZM79.8744 82.0704L76.8397 82.5686L61.0102 82.7465C47.1022 82.9142 43.1626 82.655 42.4458 82.3398C40.9818 81.7095 39.6297 79.9405 39.3857 78.3748C39.1722 76.8905 39.9143 74.8368 41.0632 73.7998C42.5119 72.4934 43.1422 72.4477 60.9441 72.4273C79.2542 72.4172 79.1577 72.4121 80.8962 74.0286C83.3463 76.3161 82.8329 80.3878 79.8744 82.0704Z" fill="#6587DF"/>
</svg>
