<svg width="102" height="102" viewBox="0 0 102 102" fill="none" xmlns="http://www.w3.org/2000/svg">
<path d="M12.75 21.25V80.75C12.75 83.0043 13.6455 85.1663 15.2396 86.7604C16.8337 88.3545 18.9957 89.25 21.25 89.25H80.75C83.0043 89.25 85.1663 88.3545 86.7604 86.7604C88.3545 85.1663 89.25 83.0043 89.25 80.75V21.25C89.25 18.9957 88.3545 16.8337 86.7604 15.2396C85.1663 13.6455 83.0043 12.75 80.75 12.75H21.25C18.9957 12.75 16.8337 13.6455 15.2396 15.2396C13.6455 16.8337 12.75 18.9957 12.75 21.25ZM42.5 29.75H76.5V38.25H42.5V29.75ZM42.5 46.75H76.5V55.25H42.5V46.75ZM42.5 63.75H76.5V72.25H42.5V63.75ZM25.5 29.75H34V38.25H25.5V29.75ZM25.5 46.75H34V55.25H25.5V46.75ZM25.5 63.75H34V72.25H25.5V63.75Z" fill="#6587DF"/>
</svg>
