<svg width="103" height="103" viewBox="0 0 103 103" fill="none" xmlns="http://www.w3.org/2000/svg">
<path d="M94.4124 34.3333C94.4128 33.5545 94.2007 32.7903 93.7987 32.1231L82.1726 12.7463C81.4067 11.4795 80.3277 10.4312 79.0394 9.70215C77.7512 8.97308 76.297 8.58779 74.8167 8.58334H28.1749C25.1793 8.58334 22.3596 10.1798 20.8189 12.7506L9.19281 32.1231C8.79089 32.7903 8.5787 33.5545 8.5791 34.3333C8.5791 38.6465 10.2357 42.5476 12.8708 45.5689V85.8333C12.8708 86.9716 13.3229 88.0632 14.1278 88.868C14.9326 89.6729 16.0242 90.125 17.1624 90.125H51.4958C52.634 90.125 53.7256 89.6729 54.5304 88.868C55.3353 88.0632 55.7874 86.9716 55.7874 85.8333V64.375H72.9541V85.8333C72.9541 86.9716 73.4063 88.0632 74.2111 88.868C75.016 89.6729 76.1076 90.125 77.2458 90.125H85.8291C86.9673 90.125 88.0589 89.6729 88.8638 88.868C89.6686 88.0632 90.1208 86.9716 90.1208 85.8333V45.5689C92.7559 42.5476 94.4124 38.6465 94.4124 34.3333ZM85.7604 35.4106C85.4964 37.483 84.4863 39.3883 82.9191 40.7699C81.3519 42.1514 79.335 42.9146 77.2458 42.9167C72.5121 42.9167 68.6624 39.0671 68.6624 34.3333C68.6624 34.0415 68.5551 33.784 68.4951 33.5093L68.5809 33.4922L65.3149 17.1667H74.8167L85.7604 35.4106ZM42.9425 34.6123L46.4273 17.1667H56.5599L60.0491 34.6123C59.8989 39.2173 56.1308 42.9167 51.4958 42.9167C46.8608 42.9167 43.0927 39.2173 42.9425 34.6123ZM28.1749 17.1667H37.6766L34.4149 33.4922L34.5008 33.5093C34.4364 33.784 34.3291 34.0415 34.3291 34.3333C34.3291 39.0671 30.4795 42.9167 25.7458 42.9167C23.6565 42.9146 21.6396 42.1514 20.0724 40.7699C18.5052 39.3883 17.4951 37.483 17.2311 35.4106L28.1749 17.1667ZM42.9124 68.6667H25.7458V55.7917H42.9124V68.6667Z" fill="#6587DF"/>
</svg>
