<svg width="29" height="27" viewBox="0 0 29 27" fill="none" xmlns="http://www.w3.org/2000/svg">
<path d="M28.9221 3.05999L26.2813 13.5C26.2818 13.6183 26.2586 13.7356 26.2133 13.8449C26.1679 13.9543 26.1011 14.0537 26.0169 14.1374C25.9327 14.2211 25.8326 14.2873 25.7224 14.3324C25.6123 14.3775 25.4942 14.4004 25.3751 14.4H8.15623L8.88177 18H24.4688C24.7092 18 24.9397 18.0949 25.1096 18.2636C25.2796 18.4324 25.3751 18.6613 25.3751 18.9C25.3751 19.1387 25.2796 19.3676 25.1096 19.5364C24.9397 19.7052 24.7092 19.8 24.4688 19.8H8.15623C8.03719 19.8001 7.9193 19.7769 7.8093 19.7317C7.69929 19.6865 7.59935 19.6203 7.51517 19.5367C7.431 19.4531 7.36425 19.3538 7.31875 19.2446C7.27325 19.1353 7.24988 19.0182 7.25 18.9L3.8062 1.79996H0.906232C0.665884 1.79996 0.435381 1.70514 0.265429 1.53636C0.0954777 1.36758 0 1.13867 0 0.899981C0 0.661291 0.0954777 0.432377 0.265429 0.263598C0.435381 0.0948192 0.665884 4.6499e-08 0.906232 4.6499e-08H4.53174C4.65076 -3.79531e-05 4.76862 0.0232148 4.87859 0.0684296C4.98855 0.113644 5.08847 0.179935 5.17263 0.263514C5.25679 0.347092 5.32354 0.44632 5.36907 0.555528C5.4146 0.664736 5.43801 0.781783 5.43797 0.899981L5.61925 1.79996H28.0938C28.2128 1.79992 28.3306 1.82318 28.4406 1.86839C28.5506 1.91361 28.6505 1.9799 28.7347 2.06347C28.8188 2.14705 28.8856 2.24628 28.9311 2.35549C28.9766 2.4647 29 2.58174 29 2.69994C28.9996 2.82404 28.973 2.94668 28.9221 3.05999ZM7.79383 12.6H10.8751V3.6005H5.98122L7.79383 12.6ZM16.3125 3.6005H11.7813V12.6H16.3126L16.3125 3.6005ZM21.75 3.6005H17.2188V12.6H21.7501L21.75 3.6005ZM22.6562 3.6005V12.6H24.698L26.9936 3.6005H22.6562ZM9.96869 21.6001C10.5064 21.6001 11.032 21.7585 11.4791 22.0551C11.9262 22.3518 12.2747 22.7735 12.4804 23.2668C12.6862 23.7602 12.7401 24.3031 12.6352 24.8268C12.5302 25.3505 12.2713 25.8316 11.8911 26.2092C11.5109 26.5868 11.0265 26.8439 10.4991 26.9481C9.97171 27.0523 9.42507 26.9988 8.9283 26.7945C8.43152 26.5901 8.00692 26.2441 7.70818 25.8001C7.40945 25.3561 7.25 24.8341 7.25 24.3001C7.25012 23.584 7.53659 22.8973 8.04642 22.391C8.55624 21.8847 9.24769 21.6002 9.96869 21.6001ZM9.96869 25.2006C10.1479 25.2006 10.3231 25.1478 10.4722 25.0489C10.6212 24.9501 10.7374 24.8095 10.8059 24.645C10.8745 24.4806 10.8925 24.2996 10.8575 24.1251C10.8225 23.9505 10.7362 23.7901 10.6095 23.6643C10.4828 23.5384 10.3213 23.4527 10.1455 23.4179C9.9697 23.3832 9.78749 23.401 9.62189 23.4692C9.4563 23.5373 9.31477 23.6526 9.21519 23.8006C9.11561 23.9486 9.06246 24.1226 9.06246 24.3006C9.06243 24.4188 9.08584 24.5358 9.13138 24.645C9.17692 24.7542 9.24368 24.8534 9.32784 24.9369C9.41201 25.0204 9.51193 25.0867 9.62189 25.1318C9.73186 25.177 9.8497 25.2002 9.96869 25.2V25.2006ZM22.6562 21.6001C23.1939 21.6001 23.7196 21.7585 24.1667 22.0551C24.6137 22.3518 24.9622 22.7735 25.168 23.2668C25.3738 23.7602 25.4276 24.3031 25.3227 24.8268C25.2178 25.3505 24.9589 25.8316 24.5786 26.2092C24.1984 26.5868 23.714 26.8439 23.1866 26.9481C22.6592 27.0523 22.1126 26.9988 21.6158 26.7945C21.1191 26.5901 20.6945 26.2441 20.3957 25.8001C20.097 25.3561 19.9375 24.8341 19.9375 24.3001C19.9377 23.5841 20.2241 22.8975 20.7338 22.3912C21.2435 21.8849 21.9349 21.6003 22.6558 21.6001H22.6562ZM22.6562 25.2006C22.8355 25.2006 23.0107 25.1478 23.1597 25.0489C23.3087 24.9501 23.4249 24.8095 23.4935 24.645C23.5621 24.4806 23.58 24.2996 23.5451 24.1251C23.5101 23.9505 23.4238 23.7901 23.297 23.6643C23.1703 23.5384 23.0088 23.4527 22.833 23.4179C22.6572 23.3832 22.475 23.401 22.3094 23.4692C22.1438 23.5373 22.0023 23.6526 21.9027 23.8006C21.8031 23.9486 21.75 24.1226 21.75 24.3006C21.75 24.4188 21.7734 24.5358 21.8189 24.6449C21.8644 24.754 21.9311 24.8532 22.0152 24.9367C22.0993 25.0203 22.1992 25.0865 22.3091 25.1317C22.419 25.1769 22.5368 25.2001 22.6558 25.2L22.6562 25.2006Z" fill="white"/>
</svg>
